<svg class="img-fluid" id="outputsvg" xmlns="http://www.w3.org/2000/svg" style="transform: none; transform-origin: 50% 50%; cursor: move; max-height: none;" width="2000" height="2000" viewBox="0 0 20000 20000"><g id="l1TMgm1gRMlZ1EKRDkEWNr4" fill="rgb(231,226,216)" style="transform: none;"><g style="transform: none;"><path id="pDKlRZVva" d="M0 10000 l0 -10000 10000 0 10000 0 0 10000 0 10000 -10000 0 -10000 0 0 -10000z m13337 7083 c-1 -81 -3 -17 -3 142 0 160 2 226 3 148 2 -78 2 -208 0 -290z m-6583 315 c6 -34 5 -38 -14 -38 -22 0 -26 29 -13 105 l7 40 7 -35 c4 -19 10 -52 13 -72z m2703 -320 c-1 -79 -3 -15 -3 142 0 157 2 221 3 143 2 -79 2 -207 0 -285z m-2494 345 c5 -60 4 -63 -17 -63 -22 0 -22 2 -13 53 18 99 22 100 30 10z m441 5 c6 -49 5 -58 -8 -58 -10 0 -16 9 -16 23 0 26 12 99 15 95 1 -2 6 -29 9 -60z m214 -1 c8 -53 8 -57 -11 -57 -17 0 -19 5 -13 31 3 17 6 45 6 62 0 45 8 29 18 -36z m661 -14 c1 -36 -2 -43 -19 -43 -17 0 -18 3 -10 26 6 14 10 42 11 62 0 30 2 33 9 17 5 -11 9 -39 9 -62z m775 -5 c7 -36 6 -38 -19 -38 -26 0 -27 2 -20 43 3 23 9 51 12 62 6 18 7 18 13 -5 4 -14 10 -42 14 -62z m2904 -146 c18 -3 22 -10 22 -43 0 -32 -3 -39 -20 -39 -11 0 -21 -3 -21 -7 -1 -5 -5 -57 -9 -118 -5 -80 -7 -36 -6 165 0 170 2 231 5 160 6 -110 7 -115 29 -118z m1022 148 c0 -63 -2 -70 -20 -70 -11 0 -20 5 -20 10 0 15 33 130 37 130 1 0 3 -31 3 -70z m-4910 -12 c7 -35 6 -38 -14 -38 -19 0 -21 5 -18 43 4 55 13 80 19 52 3 -11 8 -37 13 -57z m3500 -30 c0 -34 -3 -38 -26 -38 -17 0 -24 5 -21 13 2 6 10 29 18 49 15 44 29 33 29 -24z m-533 -261 c-1 -45 -3 -5 -3 88 0 94 2 130 3 82 2 -48 2 -125 0 -170z m-170 46 c-2 -38 -3 -7 -3 67 0 74 1 105 3 68 2 -38 2 -98 0 -135z m545 -94 c-12 -39 -18 -46 -23 -32 -4 10 -8 33 -8 51 -1 27 2 32 23 32 l24 0 -16 -51z m1409 2 c-9 -27 -17 -48 -17 -48 -1 1 -5 23 -8 50 -7 45 -6 47 17 47 l24 0 -16 -49z m-5305 -18 c-3 -21 -6 -51 -6 -67 0 -49 -18 -17 -25 47 -7 55 -6 57 15 57 21 0 22 -3 16 -37z m658 -20 c-7 -40 -24 -69 -24 -41 0 8 -3 30 -6 47 -6 27 -4 31 15 31 20 0 21 -4 15 -37z m-1318 5 c-3 -13 -6 -34 -6 -47 0 -34 -7 -23 -18 27 -9 39 -8 42 10 42 16 0 19 -5 14 -22z m-1571 -546 c13 -5 1 -9 -35 -12 l-55 -5 -3 -263 c-3 -297 -7 -282 77 -266 l46 9 0 262 0 261 27 -31 27 -32 0 -190 c1 -167 -2 -195 -19 -233 -24 -53 -68 -74 -143 -70 l-52 3 -3 293 -2 293 57 -6 c32 -4 67 -10 78 -13z m402 1 c25 -12 41 -29 54 -61 18 -40 19 -67 17 -276 -3 -231 -3 -231 -25 -234 l-23 -3 -2 273 -3 273 -50 3 c-83 4 -79 17 -85 -280 -4 -225 -7 -263 -20 -263 -13 0 -15 34 -18 235 -3 277 1 299 62 330 49 24 49 24 93 3z m376 6 c12 -6 34 -25 50 -41 l27 -30 -2 -251 c-3 -216 -5 -252 -18 -252 -13 0 -16 39 -20 267 -3 146 -8 269 -12 273 -13 13 -85 17 -106 6 -21 -11 -22 -18 -24 -279 -3 -259 -4 -267 -23 -267 -19 0 -20 7 -20 245 0 225 2 248 19 277 11 18 36 39 55 47 44 18 47 19 74 5z m287 -140 l5 -144 45 -3 c79 -5 84 5 88 162 4 120 6 137 21 134 14 -3 16 -22 19 -126 1 -73 -1 -122 -7 -122 -19 0 -41 -32 -41 -58 0 -27 -1 -27 -62 -27 l-63 0 0 -110 0 -110 60 0 60 0 5 105 c5 103 5 105 23 80 12 -17 17 -44 17 -92 0 -56 -4 -71 -24 -95 -23 -26 -29 -28 -103 -28 l-78 0 -3 280 c-1 154 0 286 3 293 3 8 11 12 18 10 8 -3 13 -46 17 -149z m485 131 c0 -11 -12 -15 -50 -15 l-50 0 -3 -49 c-3 -53 3 -88 41 -216 45 -154 67 -240 67 -265 0 -25 -1 -25 -80 -25 -64 0 -80 3 -80 15 0 11 12 15 50 15 l50 0 0 43 c0 41 -34 188 -64 277 -27 83 -57 213 -52 227 8 21 171 14 171 -7z m159 -40 l11 -55 73 -3 72 -3 1 33 c2 52 13 83 33 86 15 3 17 -1 12 -25 -5 -26 -57 -375 -72 -488 -8 -61 -18 -75 -55 -75 -37 0 -43 15 -63 152 -16 104 -56 416 -56 431 0 5 8 7 17 5 12 -2 20 -20 27 -58z m372 -103 c1 -86 5 -161 9 -167 3 -5 22 -10 41 -10 19 0 34 -4 34 -8 0 -28 -42 -228 -49 -235 -5 -5 -19 -7 -32 -5 l-24 3 -3 293 c-2 217 1 293 9 290 8 -3 13 -54 15 -161z m329 -133 l0 -289 -27 -3 c-35 -4 -43 15 -67 148 l-17 95 37 -3 36 -4 6 78 c4 42 7 122 7 176 0 75 3 99 13 96 9 -4 12 -71 12 -294z m340 276 c0 -11 -15 -16 -55 -20 l-55 -5 0 -120 0 -120 48 -3 c33 -2 47 -7 47 -18 0 -10 -13 -14 -50 -14 l-51 0 3 -117 3 -118 48 -3 c34 -2 47 -7 47 -18 0 -12 -14 -14 -72 -12 l-73 3 -3 293 -2 293 82 -3 c66 -2 83 -6 83 -18z m385 -255 l5 -270 28 -3 c19 -2 27 -9 27 -23 0 -18 -6 -20 -92 -17 -75 2 -93 6 -93 18 0 10 13 17 35 20 l35 5 3 260 c1 143 4 266 7 273 3 8 13 12 22 10 17 -3 18 -26 23 -273z m349 261 c23 -15 -1 -26 -55 -26 l-54 0 0 -125 c0 -139 -6 -129 80 -138 31 -3 29 -4 -10 -6 -71 -2 -71 -3 -68 -137 l3 -119 55 -5 c75 -8 42 -22 -41 -18 l-64 3 -3 280 c-1 154 0 286 3 294 4 10 21 13 74 9 37 -3 73 -8 80 -12z m340 -37 c18 -23 25 -47 29 -100 4 -64 3 -69 -16 -69 -18 0 -21 8 -27 78 -4 42 -12 85 -17 95 -10 19 -52 23 -92 7 l-26 -10 1 -217 c1 -120 4 -231 8 -248 6 -27 10 -30 51 -33 25 -1 51 1 57 6 7 4 16 40 19 80 6 59 10 72 23 70 34 -7 21 -119 -19 -166 -30 -36 -90 -41 -121 -11 -58 55 -59 58 -59 267 0 208 7 245 52 274 51 34 98 26 137 -23z m416 -244 c0 -283 0 -290 -20 -290 -19 0 -20 8 -25 125 l-5 125 -65 0 -65 0 -3 -120 c-3 -117 -13 -156 -32 -125 -6 8 -10 136 -10 293 0 260 1 278 18 275 15 -3 18 -20 22 -143 l5 -140 44 -3 c93 -7 91 -10 91 147 0 76 3 141 7 145 4 4 14 5 23 4 13 -3 15 -39 15 -293z m203 132 l3 -157 31 0 c36 0 68 24 68 51 0 24 76 239 89 252 8 8 11 -75 11 -277 0 -226 -3 -287 -12 -283 -10 3 -12 34 -10 121 5 153 1 166 -43 166 -18 0 -37 -6 -42 -12 -7 -12 -76 -204 -92 -258 -4 -14 -14 -25 -22 -25 -12 0 -14 45 -17 280 -1 154 0 286 3 293 3 8 11 12 18 10 9 -4 13 -47 15 -161z m417 -132 c0 -283 0 -290 -20 -290 -19 0 -20 8 -23 280 -1 154 0 286 3 293 3 7 13 12 22 10 17 -3 18 -25 18 -293z m343 273 c3 -16 -5 -18 -57 -18 l-61 0 0 -125 0 -125 33 0 c17 0 42 -3 55 -6 40 -11 23 -24 -33 -24 l-55 0 0 -120 0 -120 56 0 c40 0 55 -3 52 -12 -3 -9 -28 -13 -79 -13 l-74 0 -3 280 c-1 154 0 286 3 293 3 9 25 12 82 10 65 -3 78 -6 81 -20z m192 -88 l0 -110 35 0 c31 0 36 4 54 44 10 24 26 69 35 100 10 34 24 60 37 67 11 6 22 9 24 7 2 -2 -17 -57 -41 -123 -56 -153 -57 -194 -9 -335 39 -116 41 -130 21 -130 -9 0 -26 37 -48 108 l-33 107 -37 3 -37 3 -3 -108 c-3 -100 -4 -108 -23 -108 -19 0 -20 8 -23 280 -1 154 0 285 3 292 2 7 14 13 25 13 19 0 20 -6 20 -110z m1199 82 c48 -35 66 -70 66 -125 0 -69 -11 -104 -35 -117 -19 -10 -20 -7 -17 105 2 132 0 137 -73 133 l-45 -3 -3 -133 -3 -134 61 4 60 3 0 -29 c0 -23 -2 -26 -14 -17 -8 7 -34 11 -58 9 l-43 -3 -3 -104 c-3 -118 3 -131 59 -131 50 0 59 20 59 132 0 80 0 81 20 63 16 -14 20 -31 20 -81 0 -56 -4 -68 -29 -96 -27 -30 -32 -32 -102 -32 l-74 -1 -3 294 -2 294 67 -6 c42 -4 77 -14 92 -25z m387 3 c49 -32 55 -66 52 -322 -3 -230 -4 -238 -23 -238 -19 0 -20 8 -23 272 l-2 273 -27 6 c-14 4 -42 3 -62 -2 l-36 -9 -5 -270 c-5 -262 -6 -270 -25 -270 -19 0 -20 7 -20 250 0 279 2 286 67 318 35 18 68 15 104 -8z m259 -268 c0 -157 -3 -288 -7 -292 -24 -24 -28 21 -28 289 0 155 3 286 7 290 24 24 28 -14 28 -287z m255 17 l5 -269 33 -3 c24 -3 32 -8 32 -23 0 -18 -6 -20 -92 -17 -79 3 -93 6 -96 21 -3 14 4 17 37 17 l41 0 0 268 c0 148 3 272 7 276 24 23 28 -15 33 -270z m370 256 c0 -18 -7 -20 -60 -20 l-61 0 3 -127 3 -128 53 -3 c69 -4 67 -22 -3 -22 l-55 0 0 -120 0 -120 55 0 c42 0 55 -3 55 -15 0 -12 -16 -15 -80 -15 l-80 0 0 288 c0 159 3 292 7 295 3 4 42 7 85 7 71 0 78 -2 78 -20z m180 -135 l0 -155 40 0 c39 0 39 0 33 -32 -3 -18 -10 -42 -16 -53 -6 -11 -22 -58 -37 -105 -18 -57 -32 -86 -43 -88 -16 -3 -17 21 -17 292 0 289 0 296 20 296 19 0 20 -7 20 -155z m198 -146 c-3 -245 -5 -284 -18 -284 -13 0 -15 23 -13 153 l2 152 -34 0 c-27 0 -35 4 -35 18 1 25 15 78 44 162 15 41 29 81 32 89 3 9 8 11 14 5 7 -7 9 -118 8 -295z m342 281 c0 -16 -8 -19 -57 -22 l-58 -3 -5 -270 c-5 -262 -6 -270 -25 -270 -19 0 -20 8 -23 293 l-2 292 85 0 c78 0 85 -2 85 -20z m290 0 c0 -16 -8 -19 -57 -22 l-58 -3 -3 -122 -3 -123 33 0 c45 0 79 -10 72 -21 -3 -5 -27 -9 -55 -9 l-49 0 0 -120 0 -120 61 0 c44 0 60 -3 57 -12 -3 -9 -29 -13 -84 -13 l-79 0 -3 293 -2 292 85 0 c78 0 85 -2 85 -20z m280 17 c0 -3 68 -490 77 -549 4 -30 2 -38 -10 -38 -9 0 -19 5 -22 11 -4 5 -13 81 -21 167 -22 234 -19 222 -57 222 l-33 0 -22 -137 c-13 -76 -23 -154 -23 -173 -1 -53 -13 -85 -33 -88 -17 -4 -18 1 -12 55 12 99 75 499 81 521 4 10 75 19 75 9z m390 -17 c0 -16 -8 -19 -57 -22 l-58 -3 -3 -122 -3 -123 40 0 c44 0 71 -8 71 -21 0 -5 -25 -9 -55 -9 l-55 0 0 -119 0 -120 52 -3 c31 -2 53 -8 56 -16 3 -10 -14 -12 -75 -10 l-78 3 -3 293 -2 292 85 0 c78 0 85 -2 85 -20z m180 -140 l0 -160 39 0 39 0 -15 -57 c-8 -32 -22 -71 -30 -87 -9 -16 -21 -50 -27 -75 -7 -30 -17 -47 -28 -49 -17 -3 -18 16 -18 292 0 289 0 296 20 296 19 0 20 -7 20 -160z m198 -140 c-2 -216 -6 -284 -15 -288 -10 -3 -13 31 -13 147 l0 151 -36 0 -37 0 6 41 c8 59 78 252 89 241 4 -4 7 -136 6 -292z m-7667 288 c6 -26 26 -204 23 -207 -2 -2 -4 4 -4 13 0 15 -7 17 -41 14 l-41 -4 7 71 c9 84 19 115 40 115 8 0 15 -1 16 -2z m3744 -8 c4 -6 -9 -10 -31 -10 -57 0 -74 -22 -74 -94 0 -35 6 -69 14 -78 17 -22 88 -24 106 -3 17 21 25 127 11 153 -11 21 -10 22 27 22 21 0 43 5 50 12 17 17 15 3 -4 -34 -19 -36 -13 -112 11 -137 13 -15 10 -16 -23 -13 -48 5 -70 -18 -78 -81 -5 -37 -2 -53 14 -81 l21 -36 -44 0 -44 0 -7 -46 c-3 -25 -4 -63 -1 -84 5 -36 3 -39 -13 -30 -28 15 -32 63 -10 132 24 78 26 150 4 169 -20 16 -49 73 -62 123 -14 48 5 102 40 116 31 12 85 12 93 0z m-259 -1055 c133 -39 220 -163 260 -368 21 -107 32 -1112 15 -1320 -20 -235 -70 -365 -167 -433 -94 -67 -202 -91 -326 -74 -186 26 -305 146 -355 358 -16 70 -18 135 -18 742 0 658 0 666 23 759 52 216 158 327 337 355 51 8 177 -2 231 -19z m-5661 -17 c32 -10 46 -24 72 -68 l33 -54 0 -303 c0 -322 -2 -339 -50 -400 -41 -53 -73 -64 -173 -61 l-92 3 -3 454 -2 454 87 -6 c49 -3 106 -12 128 -19z m633 -5 c3 -22 1 -23 -88 -23 l-90 0 2 -197 3 -198 67 -7 c37 -3 72 -9 78 -13 24 -15 -6 -25 -76 -25 l-74 0 2 -182 3 -183 72 -3 c48 -2 75 -8 84 -18 22 -27 -4 -35 -112 -32 l-104 3 -3 453 -2 453 117 -3 c114 -3 118 -4 121 -25z m320 -206 c2 -196 5 -229 18 -234 24 -9 151 17 165 33 8 10 14 83 18 222 l6 207 25 0 c24 0 25 -2 28 -80 2 -44 -2 -131 -9 -193 -11 -98 -16 -119 -41 -153 -38 -52 -37 -91 2 -121 27 -21 32 -34 41 -93 15 -110 -15 -207 -76 -245 -43 -27 -219 -30 -229 -4 -9 22 -8 879 1 888 4 4 16 6 28 4 19 -3 20 -10 23 -231z m1282 219 c47 -8 99 -21 115 -30 17 -9 35 -16 41 -16 21 0 93 -83 122 -143 53 -107 74 -227 75 -422 1 -256 -35 -390 -130 -482 -66 -64 -71 -102 -22 -149 83 -79 111 -175 113 -394 2 -307 -50 -428 -216 -495 l-73 -29 -265 -1 -265 0 -3 1075 c-1 591 0 1081 3 1088 7 18 392 16 505 -2z m1978 -88 l3 -98 -206 0 -205 0 0 -990 0 -991 -117 3 -118 3 -3 1075 c-1 591 0 1081 3 1088 3 10 73 12 322 10 l318 -3 3 -97z m2951 95 l24 -6 -5 -699 -5 -698 33 0 c30 0 34 3 40 38 3 20 30 105 59 187 29 83 130 383 225 668 l172 517 84 0 84 0 0 -1089 0 -1090 -42 -6 c-24 -4 -70 -5 -103 -3 l-60 3 -3 455 c-1 250 3 543 9 650 17 310 20 275 -22 278 -35 3 -37 1 -52 -40 -8 -24 -46 -133 -85 -243 -38 -110 -84 -240 -100 -290 -17 -49 -76 -223 -132 -385 -56 -162 -110 -323 -121 -357 l-19 -61 -63 -7 c-35 -4 -74 -5 -88 -3 l-24 3 -3 960 c-2 528 0 1020 3 1093 l7 132 82 0 c44 0 92 -3 105 -7z m2001 -499 l0 -505 37 3 37 3 52 150 c29 83 81 227 117 320 35 94 74 199 87 235 12 36 38 106 57 155 19 50 39 102 45 118 l10 27 119 0 c66 0 119 -2 119 -4 0 -2 -32 -87 -71 -188 -38 -100 -88 -230 -109 -288 -21 -58 -48 -130 -60 -160 -12 -30 -25 -67 -30 -81 -4 -14 -29 -81 -55 -150 -27 -68 -54 -140 -61 -159 -29 -77 -17 -120 166 -615 19 -51 95 -259 136 -375 13 -36 30 -85 39 -109 9 -24 14 -45 13 -46 -2 -1 -52 -5 -112 -8 l-108 -5 -25 56 c-14 31 -47 120 -73 197 -27 77 -91 259 -143 405 -52 146 -98 280 -102 298 -6 31 -9 33 -43 30 l-37 -3 -3 -487 -2 -487 -46 -7 c-41 -6 -181 0 -189 8 -5 5 -8 604 -6 1406 l1 772 120 0 120 0 0 -506z m-9197 -788 c7 -17 27 -138 57 -341 12 -77 34 -224 51 -327 16 -102 29 -194 29 -202 0 -10 -9 -16 -24 -16 -22 0 -24 5 -35 93 -7 50 -18 135 -26 187 -8 52 -17 129 -20 170 -3 41 -11 110 -17 153 l-12 77 -32 0 c-43 0 -48 -16 -80 -235 -14 -99 -35 -238 -47 -310 -20 -119 -24 -130 -45 -133 -27 -4 -27 -2 -6 114 19 111 40 234 64 389 34 218 63 370 73 383 13 17 64 15 70 -2z m341 -3 c5 -18 26 -141 26 -155 0 -5 51 -8 114 -8 l113 0 7 73 c9 97 13 107 41 107 17 0 22 -5 19 -17 -2 -10 -17 -108 -34 -218 -30 -193 -93 -566 -106 -632 -4 -18 -12 -33 -18 -33 -6 0 -20 -3 -31 -5 -36 -9 -46 9 -60 111 -8 54 -28 189 -44 299 -40 266 -60 401 -67 453 -5 37 -3 42 15 42 11 0 22 -8 25 -17z m606 -258 l5 -270 36 -3 36 -3 90 273 c60 181 95 273 104 273 12 0 15 -66 17 -385 2 -212 0 -413 -3 -447 -6 -55 -9 -63 -27 -63 -21 0 -21 1 -15 280 l6 280 -34 0 c-37 0 -26 19 -110 -205 -13 -33 -44 -127 -71 -208 -37 -113 -51 -147 -63 -145 -14 3 -16 54 -19 451 l-2 448 22 -3 23 -3 5 -270z m4115 -1945 c305 -27 705 -99 935 -169 280 -86 286 -87 495 -169 170 -66 542 -246 708 -344 171 -100 465 -297 516 -346 8 -8 38 -32 68 -55 108 -83 121 -93 189 -152 229 -197 466 -444 645 -670 310 -391 493 -695 717 -1186 11 -25 41 -97 65 -160 204 -526 321 -1069 346 -1615 10 -200 -1 -625 -18 -754 -6 -41 -15 -115 -21 -165 -29 -235 -115 -623 -191 -855 -17 -52 -35 -99 -39 -104 -5 -4 -37 1 -72 12 -34 12 -82 26 -104 32 l-42 10 30 93 c42 133 113 420 142 577 163 856 84 1805 -216 2615 -134 360 -328 738 -548 1065 -66 98 -253 342 -324 424 -63 71 -69 71 -280 7 -324 -99 -397 -120 -706 -196 -173 -42 -321 -79 -328 -81 -10 -3 -12 -51 -10 -216 l3 -213 433 -5 434 -5 19 -24 c14 -17 18 -32 14 -53 -4 -16 -11 -66 -15 -111 -5 -45 -16 -111 -24 -147 -8 -36 -16 -83 -16 -105 0 -22 -7 -65 -16 -95 -8 -30 -19 -91 -23 -135 -5 -44 -16 -116 -25 -160 -8 -44 -20 -111 -26 -150 -6 -38 -20 -126 -31 -195 -11 -69 -26 -168 -34 -220 -16 -115 -31 -180 -42 -190 -4 -5 -348 -10 -763 -11 -571 -2 -760 0 -777 9 -16 9 -24 25 -28 60 -4 26 -13 72 -20 102 -8 30 -17 87 -20 125 -4 39 -13 93 -20 120 -8 28 -17 82 -20 120 -4 39 -11 88 -17 110 -6 22 -16 85 -23 140 -13 96 -26 180 -60 365 -22 121 -46 285 -52 356 -9 101 -42 94 468 94 l439 0 0 185 0 185 -43 0 c-23 0 -105 -11 -182 -24 -512 -90 -1078 -143 -1677 -159 -83 -2 -111 -6 -124 -19 -14 -13 -18 -58 -25 -284 -5 -148 -10 -368 -11 -489 l-3 -220 60 -18 c161 -46 307 -110 360 -157 11 -9 28 -21 37 -26 49 -26 182 -162 236 -243 209 -309 237 -555 123 -1061 -165 -733 -466 -1514 -727 -1890 -14 -19 -56 -67 -93 -106 -74 -76 -191 -144 -247 -144 -43 0 -145 52 -188 96 -179 186 -374 673 -560 1404 -105 414 -196 926 -196 1105 0 109 15 191 55 312 44 131 79 200 155 303 163 219 373 354 639 409 51 11 94 21 96 23 2 2 10 223 19 492 11 345 13 493 6 500 -7 7 -99 14 -233 18 -298 9 -543 23 -808 48 -121 12 -241 20 -267 18 l-46 -3 -29 -135 c-16 -74 -31 -161 -34 -192 l-5 -58 279 0 c204 0 282 -3 291 -12 7 -7 12 -43 12 -90 l0 -78 -307 0 c-170 0 -314 -4 -322 -9 -16 -10 -34 -88 -35 -151 l-1 -45 188 -3 188 -2 -3 -88 -3 -87 -963 -3 -963 -2 3 87 3 88 188 3 187 2 0 53 c-1 28 -7 75 -14 102 l-13 50 -322 3 -322 2 3 88 3 87 293 3 292 2 0 35 c0 20 -13 91 -30 158 -16 67 -46 196 -65 287 -20 91 -41 180 -46 197 -11 36 -7 34 -186 78 -56 14 -114 30 -130 36 -84 33 -229 69 -275 69 -51 0 -55 -2 -94 -47 -305 -350 -595 -823 -785 -1280 -59 -141 -161 -436 -195 -560 -47 -175 -58 -224 -89 -397 -63 -342 -85 -582 -85 -926 0 -214 19 -548 36 -619 5 -25 11 -25 137 -5 73 12 156 -42 224 -148 l44 -67 172 6 c139 5 190 3 267 -11 165 -30 332 -94 460 -177 25 -16 52 -32 60 -36 42 -19 190 -156 246 -228 21 -27 47 -58 56 -69 10 -11 28 -35 41 -55 70 -105 220 -336 262 -401 26 -41 55 -80 63 -87 8 -7 43 -12 81 -11 124 1 157 -28 337 -307 184 -285 190 -300 154 -381 -24 -56 -61 -99 -105 -121 -16 -9 -49 -30 -72 -47 -69 -51 -64 -70 70 -272 61 -94 132 -202 156 -240 25 -38 87 -134 139 -214 130 -199 146 -235 140 -319 -7 -97 -49 -171 -133 -237 -57 -45 -109 -64 -176 -64 -121 0 -226 69 -304 200 -21 36 -51 83 -66 105 -58 86 -379 576 -389 595 -8 15 -21 20 -51 20 -35 0 -65 -16 -217 -117 -97 -64 -202 -132 -232 -152 -30 -19 -79 -52 -107 -73 -74 -54 -73 -72 21 -212 200 -302 423 -647 450 -700 76 -145 5 -321 -162 -403 -47 -23 -70 -28 -132 -28 -132 1 -202 54 -325 245 -38 60 -153 236 -254 390 -183 279 -184 280 -219 280 -23 0 -53 -12 -89 -36 -86 -57 -160 -87 -199 -81 -29 5 -79 34 -135 79 -19 16 -270 402 -307 472 -14 27 -25 63 -24 79 3 31 35 102 52 112 22 14 10 77 -23 124 -61 86 -344 526 -367 570 -70 139 -121 328 -135 502 -16 203 61 505 175 691 40 64 40 111 1 159 -50 60 -76 120 -75 170 0 45 29 115 62 153 15 16 124 92 177 122 18 10 20 22 18 115 -1 56 -6 139 -12 183 -19 134 -31 350 -31 546 0 179 21 507 39 620 5 30 15 93 21 140 22 159 68 386 105 515 64 221 119 403 130 429 18 41 74 180 95 236 31 83 63 154 157 341 140 280 307 551 477 774 34 44 64 84 68 90 21 28 112 141 122 150 6 6 24 26 40 45 74 91 297 321 415 430 209 191 597 487 756 576 11 6 61 35 110 64 469 277 1029 493 1560 600 266 54 434 76 750 100 133 10 544 4 710 -10z m3831 -5594 l42 -44 7 -444 c8 -509 10 -497 -71 -539 l-44 -24 -37 20 c-21 11 -47 34 -59 52 -21 31 -21 45 -29 476 -8 494 -9 487 58 527 52 32 84 26 133 -24z m-863 -548 c19 -15 38 -53 150 -298 97 -215 103 -232 81 -254 -49 -49 -87 -38 -121 36 -96 205 -203 451 -203 467 0 20 43 61 64 61 7 0 20 -6 29 -12z m2566 -141 c13 -12 30 -37 38 -55 22 -52 17 -58 -296 -378 -102 -104 -220 -225 -261 -268 -111 -116 -164 -133 -227 -74 -48 45 -50 100 -5 147 9 9 58 62 109 117 191 206 514 528 540 539 33 14 66 5 102 -28z m-3441 9 c37 -20 662 -636 679 -669 13 -27 13 -33 -3 -68 -20 -45 -68 -79 -111 -79 -36 0 -89 44 -273 229 -75 75 -185 183 -243 239 -163 158 -207 210 -207 240 0 39 35 91 73 107 40 18 56 18 85 1z m1835 -601 c91 -15 107 -19 237 -63 282 -95 541 -326 685 -612 90 -179 119 -306 119 -525 0 -166 -12 -248 -55 -380 -61 -183 -198 -390 -341 -515 -267 -231 -530 -329 -858 -317 -197 7 -308 36 -490 129 -412 210 -676 635 -673 1083 1 130 22 264 59 366 133 373 393 639 759 777 17 7 62 19 100 28 191 45 313 53 458 29z m1759 -347 c48 -53 36 -62 -252 -194 -244 -112 -252 -115 -284 -95 -36 21 -44 56 -20 83 16 17 97 60 269 138 82 38 233 99 244 100 8 0 27 -14 43 -32z m-3769 -64 c34 -14 123 -48 197 -75 222 -81 256 -97 269 -126 9 -21 9 -30 -4 -49 -28 -43 -43 -44 -145 -9 -173 60 -334 122 -377 144 -77 39 -88 85 -31 125 27 20 17 21 91 -10z m4326 -698 c66 -63 63 -131 -9 -177 l-39 -26 -442 -6 c-436 -7 -441 -7 -478 14 -41 23 -71 65 -71 100 0 26 41 83 73 101 27 16 283 25 664 24 l272 -1 30 -29z m-3972 -3 c16 -16 35 -43 43 -62 12 -31 12 -37 -6 -69 -10 -20 -35 -45 -54 -57 -33 -19 -57 -20 -475 -27 l-440 -7 -38 25 c-45 29 -72 81 -63 118 3 14 19 41 35 59 27 29 36 33 103 38 40 3 252 6 470 7 l397 2 28 -27z m3053 -634 c58 -22 143 -54 190 -71 135 -48 205 -84 218 -113 11 -24 9 -29 -17 -56 -35 -35 -43 -34 -171 18 -47 19 -128 49 -180 67 -156 54 -229 97 -230 134 0 19 46 62 67 62 10 0 65 -19 123 -41z m-2944 -27 c66 -54 26 -91 -206 -192 -41 -18 -104 -46 -140 -62 -36 -17 -86 -39 -112 -49 l-47 -18 -31 25 c-23 20 -29 32 -24 48 11 37 36 53 189 122 83 37 188 84 235 105 97 43 107 45 136 21z m317 -423 c40 -21 67 -52 73 -85 11 -60 19 -49 -269 -345 -100 -102 -226 -231 -280 -286 -110 -114 -141 -132 -187 -113 -39 16 -90 75 -90 103 0 40 37 84 262 313 123 124 261 266 308 314 108 113 132 125 183 99z m2212 -8 c38 -24 622 -603 659 -653 44 -59 21 -109 -71 -157 -38 -19 -80 12 -271 199 -98 96 -235 230 -304 297 -188 181 -201 203 -157 265 24 33 75 68 99 68 8 0 29 -9 45 -19z m-480 -389 c37 -56 215 -459 215 -487 0 -26 -35 -65 -58 -65 -26 0 -70 59 -102 138 -18 42 -61 139 -96 214 -79 171 -81 177 -54 211 31 39 64 36 95 -11z m-1191 -8 c10 -15 18 -36 18 -48 0 -11 -33 -104 -72 -206 -39 -102 -76 -199 -81 -216 -15 -50 -52 -99 -79 -103 -18 -2 -32 6 -51 29 l-27 31 45 117 c56 144 104 272 127 333 31 87 83 114 120 63z m613 -101 l28 -36 6 -436 c6 -477 5 -491 -50 -530 -46 -33 -75 -35 -114 -9 -70 45 -68 31 -74 516 -3 241 -3 450 0 464 9 34 53 76 91 87 40 10 76 -7 113 -56z"></path><path id="pzhkRcQDO" d="M7014 16293 c4 -37 9 -103 13 -145 l6 -78 33 0 c38 0 42 10 64 160 18 123 17 124 -59 128 l-64 3 7 -68z"></path><path id="pEQW1WaEg" d="M10810 15243 c-43 -9 -76 -41 -101 -95 l-24 -53 0 -755 0 -755 27 -58 c23 -48 34 -61 70 -77 83 -38 200 -21 230 33 42 73 42 74 45 802 5 839 2 878 -77 936 -26 20 -123 32 -170 22z"></path><path id="pUhui4wKh" d="M5212 14978 l3 -413 43 -3 c54 -4 130 30 143 65 12 33 12 664 -1 697 -15 41 -66 66 -133 66 l-57 0 2 -412z"></path><path id="pHxgGSnWj" d="M6327 14923 c-13 -12 -8 -338 5 -351 16 -16 101 -15 142 2 31 13 33 17 39 76 15 142 3 231 -36 262 -22 18 -136 26 -150 11z"></path><path id="p1EzR6FEw6" d="M7330 14790 l0 -452 138 4 c178 5 192 11 218 105 16 58 19 105 19 323 0 303 -10 374 -61 429 l-32 36 -141 3 -141 4 0 -452z"></path><path id="p1Aqhzezwe" d="M7337 14163 c-4 -3 -7 -168 -7 -365 l0 -358 123 0 c143 0 154 5 194 83 25 48 27 63 31 207 2 85 -1 202 -6 259 -10 95 -13 107 -40 134 -18 18 -46 32 -73 38 -53 10 -213 12 -222 2z"></path><path id="pkzDmXMrY" d="M5741 13923 c-23 -5 -24 -6 -17 -86 4 -45 17 -149 29 -232 l22 -150 43 -3 42 -3 0 43 c0 24 9 113 20 198 11 85 20 174 20 198 l0 42 -67 -1 c-38 -1 -79 -4 -92 -6z"></path><path id="p9ksqDuNO" d="M9570 11695 c-149 -13 -576 -71 -592 -81 -30 -19 31 -293 154 -689 28 -88 56 -182 65 -208 21 -69 135 -368 177 -464 20 -45 36 -85 36 -89 0 -4 45 -99 100 -210 87 -175 105 -205 128 -211 15 -5 161 -8 325 -8 l299 0 20 25 c21 26 156 291 201 395 144 332 230 571 350 975 43 143 107 411 107 446 0 18 -5 36 -11 40 -30 18 -414 68 -647 84 -201 13 -518 11 -712 -5z"></path><path id="p18Gtj38Aa" d="M11171 11513 c-6 -21 -27 -103 -47 -183 -20 -80 -56 -212 -81 -295 -25 -82 -53 -177 -63 -210 -60 -203 -246 -672 -356 -902 -56 -116 -65 -159 -38 -170 22 -8 611 37 746 58 57 9 72 16 110 52 37 35 142 153 171 192 4 5 28 38 55 72 74 97 154 211 187 267 17 28 44 72 61 96 103 148 324 574 324 623 0 43 -5 47 -132 109 -225 110 -353 159 -818 313 -25 8 -59 15 -77 15 -29 0 -33 -4 -42 -37z"></path><path id="pxy7wBTp7" d="M8495 11490 c-256 -81 -446 -155 -632 -246 l-113 -55 0 -46 c0 -46 12 -72 173 -373 164 -306 486 -777 632 -923 30 -30 46 -37 103 -45 69 -11 374 -37 565 -48 l107 -7 0 32 c0 18 -24 82 -56 149 -216 450 -447 1127 -526 1545 l-13 67 -45 -1 c-25 -1 -112 -23 -195 -49z"></path><path id="pVu3lG4rI" d="M7430 11016 c-19 -13 -102 -68 -184 -122 -190 -127 -186 -124 -231 -159 -184 -144 -252 -202 -388 -332 -97 -91 -98 -93 -95 -135 3 -41 5 -43 43 -51 22 -5 92 -24 155 -42 264 -76 757 -194 935 -224 33 -5 110 -19 170 -31 145 -27 298 -50 335 -50 28 0 30 2 30 38 0 28 -7 45 -26 63 -39 37 -289 415 -386 584 -48 83 -124 225 -169 318 l-83 167 -35 0 c-22 0 -50 -10 -71 -24z"></path><path id="p12CEXigUL" d="M12401 10903 c-151 -309 -362 -656 -533 -881 -36 -47 -48 -72 -48 -98 0 -30 3 -34 28 -34 15 0 77 9 137 20 61 12 135 25 165 30 244 42 1020 241 1198 306 38 14 42 19 42 49 0 22 -7 39 -19 47 -10 7 -60 51 -111 98 -124 114 -126 115 -195 168 -33 25 -82 65 -110 87 -51 43 -199 148 -338 242 -67 45 -86 53 -126 53 l-47 0 -43 -87z"></path><path id="p5Hmj4Wyt" d="M7120 9786 c0 -13 16 -98 35 -188 70 -329 105 -494 115 -533 5 -22 21 -93 35 -157 l27 -118 393 0 c217 0 396 4 399 9 3 4 23 95 45 202 22 107 56 265 75 351 30 132 46 258 33 258 -67 0 -663 108 -942 171 -71 16 -149 29 -172 29 -39 0 -43 -2 -43 -24z"></path><path id="p64L6Jvgd" d="M11417 9103 c-4 -3 -7 -26 -7 -49 0 -48 37 -311 46 -325 6 -10 295 -12 343 -3 30 6 31 8 31 63 0 31 -7 110 -15 176 -8 66 -15 126 -15 133 0 9 -44 12 -188 12 -104 0 -192 -3 -195 -7z"></path><path id="pM4kVasAg" d="M12007 9103 c-11 -11 -8 -342 3 -364 10 -18 23 -19 205 -19 114 0 196 4 200 10 3 5 9 93 12 195 l6 185 -210 0 c-115 0 -213 -3 -216 -7z"></path><path id="paHyzMKnW" d="M12631 9086 c-20 -22 -23 -37 -28 -158 -3 -74 -3 -151 1 -171 l7 -37 189 0 189 0 11 43 c6 23 16 57 22 76 6 19 11 86 12 150 l1 116 -191 3 c-190 2 -190 2 -213 -22z"></path><path id="pNrdcDbyd" d="M11503 8550 c-18 -7 -23 -17 -23 -44 0 -52 19 -186 32 -228 l11 -38 169 0 c142 0 170 2 175 15 5 14 -5 113 -26 255 l-6 45 -155 2 c-85 1 -165 -2 -177 -7z"></path><path id="pQJUGXfpo" d="M12031 8553 l-24 -5 7 -140 c4 -77 10 -147 13 -154 4 -12 38 -14 187 -12 l181 3 3 158 3 157 -173 -1 c-95 -1 -184 -4 -197 -6z"></path><path id="pOf2BEbw3" d="M12598 8553 c-19 -5 -23 -29 -33 -175 -3 -47 -3 -98 1 -112 l6 -26 177 0 c97 0 181 4 188 8 12 8 39 272 29 297 -4 13 -33 15 -178 14 -95 -1 -181 -3 -190 -6z"></path><path id="pWSLBAGse" d="M9615 8209 c-49 -17 -97 -37 -105 -43 -8 -7 -36 -25 -62 -40 -85 -48 -206 -179 -266 -287 -124 -225 -118 -510 22 -1164 29 -136 31 -143 86 -355 63 -244 69 -263 137 -480 102 -321 200 -552 295 -695 29 -44 38 -50 72 -53 35 -3 43 1 90 50 158 163 357 577 531 1103 201 610 282 978 273 1252 -4 119 -8 149 -33 218 -64 182 -158 303 -319 409 -103 68 -203 108 -259 104 l-42 -3 -6 -100 c-4 -55 -13 -274 -19 -487 l-13 -387 39 -66 c45 -76 179 -287 271 -429 36 -54 67 -104 69 -110 2 -6 -28 -31 -68 -56 -40 -24 -83 -50 -94 -57 -21 -13 -25 -8 -90 97 -67 107 -70 110 -105 110 l-36 0 -6 -187 c-4 -104 -7 -228 -7 -276 l0 -88 -117 3 -118 3 2 185 c2 199 19 811 29 1053 l7 147 -36 0 c-48 0 -94 -33 -271 -192 -17 -16 -33 -28 -37 -28 -4 0 -24 21 -44 48 -21 26 -43 52 -49 57 -6 6 -21 22 -34 36 l-23 26 88 74 c48 41 101 86 118 100 16 15 84 73 150 129 66 56 126 112 132 125 7 13 16 82 19 154 l7 131 -44 0 c-24 0 -84 -14 -134 -31z"></path><path id="p133KxJtnJ" d="M11545 8100 c-6 -10 9 -199 21 -268 l6 -32 157 2 156 3 -2 100 c-2 55 -5 124 -9 153 l-5 52 -159 0 c-97 0 -161 -4 -165 -10z"></path><path id="p1CkmPrugU" d="M12040 7978 c0 -197 -18 -179 179 -176 l166 3 7 140 c4 77 5 146 3 153 -3 9 -48 12 -180 12 l-175 0 0 -132z"></path><path id="p2Dif8Ulz" d="M12549 8083 c-6 -16 -13 -83 -16 -150 l-6 -122 24 -6 c13 -3 91 -4 174 -3 l150 3 13 29 c16 32 38 235 29 260 -6 14 -29 16 -182 16 l-175 0 -11 -27z"></path><path id="p1AmPyJuxP" d="M5149 5907 c-35 -24 -108 -72 -161 -107 l-98 -63 0 -43 c0 -35 10 -57 65 -139 36 -53 65 -100 65 -105 0 -4 -19 -32 -43 -62 -240 -298 -284 -744 -108 -1103 27 -55 91 -163 142 -240 50 -77 115 -176 144 -220 29 -44 92 -141 141 -215 l90 -135 -58 -39 c-84 -55 -82 -77 20 -232 120 -185 119 -184 155 -184 17 0 47 11 66 23 20 13 86 56 148 95 102 65 113 69 126 54 8 -9 58 -84 112 -167 54 -82 130 -199 170 -260 39 -60 111 -171 160 -245 48 -74 112 -172 142 -217 30 -46 63 -87 73 -93 31 -17 117 -13 124 6 13 34 5 98 -16 133 -30 50 -225 348 -476 731 -74 113 -137 212 -139 222 -4 12 17 30 72 65 42 26 152 98 244 158 91 61 236 156 321 211 409 267 384 253 393 232 5 -15 101 -162 346 -535 80 -123 179 -273 218 -335 40 -62 81 -119 90 -125 9 -7 36 -13 58 -13 52 0 75 23 75 75 0 44 -33 104 -193 345 -56 85 -135 207 -176 270 -41 63 -122 186 -179 273 -57 87 -103 159 -101 161 11 7 211 137 257 166 48 31 52 37 52 71 0 31 -18 64 -102 188 -91 136 -104 151 -130 151 -33 0 -82 -23 -115 -52 l-22 -20 -159 243 c-88 134 -186 285 -218 334 -142 219 -218 310 -322 387 -202 149 -333 196 -577 205 -139 5 -175 3 -274 -16 l-115 -22 -18 23 c-10 13 -44 65 -75 116 -55 88 -59 92 -93 92 -26 0 -54 -12 -101 -43z"></path><path id="pmzRXRQcr" d="M14000 4819 c-405 -60 -704 -348 -801 -769 -17 -73 -17 -319 -1 -395 83 -381 334 -647 707 -746 78 -21 112 -24 260 -24 173 0 201 4 330 47 276 93 505 334 600 628 25 76 28 104 33 260 4 158 2 185 -18 265 -55 221 -161 392 -326 525 -82 66 -225 145 -315 173 -132 42 -331 57 -469 36z"></path></g></g><g id="l2THmVFQMogSdONfLNEPQx3" fill="rgb(21,73,61)" style="transform: none;"><g style="transform: none;"><path id="p1ColUjFrp" d="M6718 17543 c-10 -2 -18 -12 -18 -21 0 -9 -5 -48 -10 -87 -5 -38 -21 -156 -35 -262 -13 -106 -27 -210 -31 -231 -6 -41 9 -58 40 -46 18 7 23 29 31 134 7 87 32 263 42 290 7 20 29 -69 37 -150 17 -172 42 -280 66 -280 28 0 36 28 66 245 8 57 34 189 39 193 8 8 25 -111 35 -243 12 -162 16 -181 37 -189 31 -12 40 10 32 81 -20 181 -41 354 -49 408 -6 33 -10 76 -10 96 0 22 -7 42 -18 52 -28 25 -53 2 -63 -59 -4 -27 -15 -87 -24 -134 -8 -47 -18 -125 -22 -173 -7 -105 -17 -97 -39 30 -45 266 -58 329 -67 341 -10 12 -11 13 -39 5z"></path><path id="pADRM2m1y" d="M7374 17536 c-7 -7 -19 -69 -28 -137 -15 -113 -31 -224 -42 -289 -2 -14 -7 -69 -10 -122 -6 -81 -5 -98 7 -98 38 1 46 34 75 290 22 193 33 203 48 40 5 -56 32 -243 42 -291 11 -55 74 -37 74 21 0 15 7 65 15 111 9 46 23 122 31 169 22 120 27 126 34 35 21 -271 33 -356 53 -367 12 -6 23 -6 28 -1 14 14 -45 570 -67 626 -8 21 -43 19 -55 -3 -4 -8 -15 -69 -24 -135 -50 -354 -54 -355 -105 -20 -13 83 -27 158 -32 168 -10 20 -28 22 -44 3z"></path><path id="pP1QGBIlo" d="M8038 17539 c-10 -5 -19 -27 -22 -52 -4 -23 -18 -121 -31 -217 -41 -283 -48 -362 -33 -371 36 -23 46 -1 62 151 17 150 34 258 44 274 8 14 30 -100 42 -219 6 -55 16 -125 23 -155 12 -54 16 -57 55 -51 9 1 25 84 37 186 3 28 15 97 27 154 l22 103 12 -63 c7 -35 17 -131 23 -213 11 -155 20 -183 55 -170 21 8 21 9 -17 334 -33 276 -34 282 -50 305 -11 14 -18 15 -34 7 -15 -9 -22 -25 -26 -64 -4 -29 -11 -75 -17 -103 -6 -27 -16 -101 -23 -163 -7 -62 -16 -114 -22 -115 -5 -1 -17 48 -26 108 -25 164 -58 318 -72 332 -8 8 -17 9 -29 2z"></path><path id="pqOkm0gly" d="M9011 17536 c-7 -8 -21 -68 -32 -133 -31 -189 -60 -353 -74 -426 -12 -63 -11 -68 6 -77 14 -8 21 -6 33 12 16 25 41 154 61 318 8 58 14 106 14 108 1 1 7 2 14 2 9 0 17 -28 25 -92 19 -163 42 -302 52 -326 7 -17 17 -22 33 -20 12 2 21 9 19 17 -1 7 -7 45 -12 85 -18 129 -48 330 -64 419 -22 117 -44 151 -75 113z"></path><path id="pvt48Drh4" d="M10903 17531 c-57 -35 -66 -67 -71 -253 -5 -163 7 -298 29 -340 12 -23 61 -48 94 -48 14 0 39 7 54 15 50 25 56 57 56 310 0 199 -2 235 -18 265 -30 61 -91 83 -144 51z m87 -60 c6 -12 10 -115 10 -265 l0 -246 -25 -6 c-16 -4 -35 0 -51 11 l-25 16 3 242 c2 133 7 248 11 255 13 19 65 15 77 -7z"></path><path id="pYBodeJ7q" d="M11367 17538 c-17 -9 -18 -29 -16 -291 2 -332 4 -349 32 -345 17 3 30 34 79 193 33 105 64 194 69 200 5 5 9 -70 9 -188 0 -185 1 -197 20 -207 37 -20 41 12 38 332 l-3 303 -23 0 c-21 0 -28 -12 -58 -100 -19 -55 -46 -140 -60 -190 -14 -49 -30 -94 -35 -99 -5 -6 -9 71 -9 186 0 206 -5 228 -43 206z"></path><path id="pvAvvDubi" d="M12774 17538 c-12 -16 -17 -428 -6 -553 5 -67 11 -90 21 -90 19 0 24 12 72 165 60 196 69 223 77 240 4 8 9 -77 12 -190 l5 -205 28 -3 27 -3 0 313 c0 224 -3 317 -12 326 -22 22 -47 -6 -69 -81 -11 -39 -32 -105 -45 -145 -13 -40 -24 -80 -24 -90 -1 -9 -9 -33 -20 -52 l-19 -35 -2 85 c-6 304 -8 325 -22 328 -7 2 -18 -3 -23 -10z"></path><path id="p1HUZEe3Ny" d="M8610 17504 c0 -28 4 -35 16 -32 40 8 44 68 4 68 -16 0 -20 -6 -20 -36z"></path><path id="pSW6fOkdO" d="M9432 17532 c-9 -7 -12 -77 -10 -318 l3 -309 52 -9 c60 -10 113 10 147 57 20 26 21 44 24 259 l3 230 -26 38 c-14 20 -36 42 -48 47 -28 12 -128 16 -145 5z m137 -68 c20 -25 21 -39 21 -244 0 -205 -1 -219 -21 -244 -14 -17 -30 -26 -50 -26 l-29 0 0 263 c0 145 3 267 7 270 15 16 53 5 72 -19z"></path><path id="pxTcRt7Yg" d="M9953 17533 c-18 -7 -19 -618 -2 -629 20 -12 127 -6 157 10 16 8 32 26 36 38 10 38 7 196 -4 203 -15 9 -12 38 7 76 13 25 18 58 18 124 -1 103 -17 145 -65 170 -27 14 -120 19 -147 8z m131 -59 c12 -12 16 -38 16 -113 0 -112 -9 -132 -60 -134 l-35 -2 -3 119 c-1 66 0 126 2 133 7 18 61 16 80 -3z m4 -408 c3 -109 0 -116 -55 -116 l-33 0 0 103 c0 57 3 107 7 111 4 4 23 6 43 4 l35 -3 3 -99z"></path><path id="p16WGrLNTa" d="M10444 17525 c-3 -8 -4 -149 -2 -315 2 -253 5 -302 18 -310 8 -5 19 -5 23 -1 5 5 8 99 7 210 0 111 2 242 6 291 l7 90 46 0 c53 0 77 15 60 37 -17 19 -158 18 -165 -2z"></path><path id="p11yzPrz4a" d="M11896 17525 c-3 -9 -6 -149 -6 -310 0 -254 2 -296 16 -309 18 -18 17 -18 38 -10 13 5 16 25 17 108 1 55 4 111 7 123 8 25 9 23 66 -133 15 -40 35 -79 45 -88 18 -16 51 -13 51 6 0 8 -57 147 -105 256 -19 41 -19 72 -1 97 21 31 106 235 106 256 0 14 -7 19 -26 19 -27 0 -43 -28 -99 -178 -15 -41 -31 -70 -36 -65 -4 4 -10 60 -11 123 l-3 115 -26 3 c-17 2 -29 -3 -33 -13z"></path><path id="p0CUwlTk9" d="M12405 17526 c-23 -16 -14 -46 14 -46 25 0 34 14 26 40 -7 24 -15 25 -40 6z"></path><path id="pqVWmoxdz" d="M13302 17223 l3 -318 30 0 30 0 3 291 2 291 50 5 c58 6 63 9 54 32 -5 13 -21 16 -90 16 l-84 0 2 -317z"></path><path id="pLOjbDxBO" d="M7658 16532 c-16 -3 -18 -18 -19 -120 -1 -132 -12 -244 -22 -222 -3 8 -13 76 -22 150 -23 194 -18 180 -70 180 -53 0 -58 -8 -69 -105 -3 -33 -8 -71 -11 -85 -2 -14 -6 -47 -10 -75 -7 -53 -18 -74 -30 -55 -4 6 -8 82 -9 168 l-1 157 -43 3 -42 3 2 -323 3 -323 54 -3 c30 -2 58 1 63 6 4 4 19 69 33 143 44 245 57 287 70 217 3 -18 16 -96 29 -173 13 -77 29 -153 35 -168 10 -27 14 -28 68 -25 l58 3 0 319 0 320 -25 6 c-14 3 -33 4 -42 2z"></path><path id="pG2eSuk8z" d="M5122 16209 l3 -324 82 -3 c108 -4 147 12 173 70 18 38 20 66 19 263 l0 220 -27 31 c-39 45 -58 52 -161 60 l-91 7 2 -324z m163 -3 l0 -230 -27 -7 c-15 -4 -29 -4 -32 -1 -9 8 -7 457 1 466 4 4 19 6 33 4 l25 -3 0 -229z"></path><path id="pADrvVmah" d="M5564 16510 c-62 -31 -65 -51 -62 -360 l3 -265 45 0 45 0 5 263 c5 280 6 286 55 280 19 -3 20 -12 23 -276 l2 -273 53 3 52 3 3 261 c2 239 1 265 -17 306 -32 75 -122 100 -207 58z"></path><path id="p1FVSwfUJb" d="M5959 16514 c-19 -8 -44 -29 -55 -47 -18 -30 -19 -52 -19 -307 l0 -275 44 -3 c24 -2 47 0 52 5 5 5 9 126 9 271 1 227 3 263 17 271 13 7 42 5 55 -3 1 0 5 -122 8 -271 l5 -270 45 0 45 0 3 282 2 281 -27 30 c-16 16 -38 35 -50 41 -30 15 -91 13 -134 -5z"></path><path id="p3OM3egD0" d="M6285 16518 c-3 -7 -4 -153 -3 -323 l3 -310 91 -3 c149 -5 171 14 179 150 4 79 2 89 -20 122 -22 32 -22 37 -9 51 9 8 20 15 25 15 6 0 8 60 7 153 l-3 152 -46 3 -47 3 -4 -137 c-3 -121 -6 -138 -23 -150 -44 -32 -50 -19 -55 136 l-5 145 -43 3 c-28 2 -44 -1 -47 -10z m153 -387 c9 -5 12 -29 10 -82 l-3 -74 -30 0 -30 0 -3 69 c-2 38 -1 75 2 83 6 15 34 17 54 4z"></path><path id="pdXA6RY3m" d="M6637 16524 c-19 -19 5 -161 49 -294 18 -54 64 -230 64 -247 0 -7 -20 -13 -52 -15 -57 -3 -66 -14 -54 -64 7 -25 7 -25 119 -22 l112 3 -3 55 c-4 54 -20 123 -69 290 -58 196 -57 203 12 204 l50 1 0 45 0 45 -111 3 c-60 1 -113 -1 -117 -4z"></path><path id="pAdEGmNWM" d="M6920 16493 c0 -75 64 -547 80 -589 9 -22 15 -24 69 -24 35 0 63 5 69 13 5 6 15 48 21 92 6 44 14 98 17 120 3 22 16 113 30 203 13 89 24 176 24 192 0 29 -2 30 -45 30 -36 0 -47 -4 -56 -22 -7 -13 -12 -24 -11 -25 1 -2 2 -19 2 -39 l0 -35 -42 3 -43 3 -10 55 -11 55 -47 3 -47 3 0 -38z m184 -171 c6 -9 -12 -128 -27 -187 -11 -40 -11 -39 -18 40 -3 44 -10 97 -14 118 -7 36 -7 37 23 37 17 0 33 -4 36 -8z"></path><path id="p1CpSrMkDH" d="M7842 16208 l3 -323 105 0 c114 0 120 4 106 60 -5 20 -13 24 -54 27 l-47 3 -3 87 -3 87 53 3 c57 3 66 14 54 63 -5 20 -13 24 -54 27 l-47 3 0 90 0 90 55 5 55 5 0 45 0 45 -113 3 -112 3 2 -323z"></path><path id="p7SbKJkhp" d="M8345 16518 c-3 -7 -6 -130 -7 -273 l-3 -260 -35 -5 c-34 -5 -35 -6 -35 -50 l0 -45 125 0 125 0 -3 45 c-4 53 -2 49 -33 53 l-24 4 -5 269 -5 269 -48 3 c-32 2 -49 -1 -52 -10z"></path><path id="p1FwByFIPI" d="M8585 16517 c-3 -7 -4 -152 -3 -322 l3 -310 90 -3 c117 -4 135 1 135 36 0 40 -10 47 -65 47 l-50 0 -3 93 c-2 69 0 92 10 93 7 1 31 2 53 3 39 1 40 2 43 39 3 32 0 37 -20 39 -13 1 -32 3 -43 4 -11 1 -26 2 -32 3 -10 1 -13 27 -13 96 l0 94 58 3 57 3 0 40 c0 48 -12 53 -133 54 -58 1 -84 -3 -87 -12z"></path><path id="przHlVqS5" d="M8985 16523 c-35 -9 -68 -37 -81 -70 -10 -24 -14 -90 -14 -255 0 -242 0 -241 59 -297 22 -20 32 -23 92 -19 57 3 70 7 88 28 29 35 42 90 39 162 -3 60 -4 62 -34 68 -56 12 -66 1 -70 -75 -3 -68 -12 -85 -43 -81 -25 4 -32 67 -29 260 3 175 4 179 25 187 31 11 40 -9 46 -99 2 -40 7 -75 9 -77 5 -5 53 -9 82 -6 17 1 18 9 14 99 -3 86 -7 102 -28 130 -36 45 -91 61 -155 45z"></path><path id="pXdjgdCf6" d="M9277 16523 c-9 -8 -9 -606 -1 -627 8 -20 82 -22 89 -3 2 6 6 64 7 127 l3 115 35 0 35 0 3 -115 c1 -63 5 -121 7 -128 3 -9 20 -12 52 -10 l48 3 0 320 0 320 -44 3 c-24 2 -48 -1 -52 -5 -5 -5 -9 -71 -10 -146 -1 -136 -2 -137 -25 -143 -52 -13 -55 -5 -53 138 1 116 -1 133 -17 145 -19 14 -66 18 -77 6z"></path><path id="p8pdawh79" d="M9665 16518 c-3 -7 -4 -153 -3 -323 l3 -310 44 0 c39 0 46 3 52 25 17 56 85 246 93 259 19 29 25 -16 19 -139 -6 -139 -1 -154 54 -148 l28 3 0 320 0 320 -27 3 c-19 2 -31 -3 -42 -20 -18 -28 -86 -223 -86 -247 0 -10 -9 -26 -20 -36 -19 -17 -20 -16 -22 141 l-3 159 -43 3 c-28 2 -44 -1 -47 -10z"></path><path id="pqY6GTu4r" d="M10075 16517 c-3 -7 -4 -152 -3 -322 l3 -310 50 0 50 0 5 303 c3 167 2 312 -2 323 -6 15 -17 19 -53 19 -27 0 -48 -5 -50 -13z"></path><path id="p1C6iD3naW" d="M10295 16518 c-3 -7 -4 -153 -3 -323 l3 -310 100 -3 c55 -1 106 2 113 7 9 6 11 19 7 45 l-7 36 -54 0 -54 0 0 90 0 90 55 0 c30 0 55 3 56 8 0 4 2 17 3 29 4 35 -8 45 -63 51 l-51 5 0 94 0 95 58 -4 57 -3 0 50 0 50 -108 3 c-81 2 -109 -1 -112 -10z"></path><path id="poeICqJfZ" d="M10605 16517 c-3 -7 -4 -152 -3 -322 l3 -310 34 -3 c75 -7 76 -6 73 115 -2 70 0 105 7 98 5 -5 24 -56 41 -113 l32 -103 51 2 c29 1 55 4 58 5 3 2 -16 67 -43 145 -26 78 -48 153 -48 166 0 14 23 88 50 165 28 78 49 147 46 155 -6 16 -69 18 -96 3 -12 -6 -26 -34 -36 -66 -25 -88 -69 -180 -63 -131 1 6 1 56 0 110 l-1 97 -50 0 c-32 0 -52 -5 -55 -13z"></path><path id="pMDDUcQ2Y" d="M11193 16519 c-49 -12 -60 -24 -78 -81 -18 -62 11 -151 79 -243 6 -8 2 -39 -12 -86 -47 -158 -13 -229 107 -229 62 0 89 21 102 78 13 58 3 104 -35 177 -34 62 -35 87 -8 118 16 18 18 17 48 -18 l31 -37 22 35 22 36 -28 43 c-40 62 -42 77 -16 137 18 41 21 56 12 67 -15 19 -49 18 -78 -2 -18 -13 -28 -14 -44 -6 -35 17 -79 21 -124 11z m88 -102 c13 -29 0 -86 -24 -101 -37 -24 -64 68 -30 106 22 24 41 23 54 -5z m27 -360 c13 -16 19 -78 8 -95 -4 -7 -14 -12 -21 -12 -23 0 -37 38 -30 81 7 40 24 50 43 26z"></path><path id="pA1bMBPvu" d="M11692 16209 l3 -324 102 0 c97 0 104 1 129 26 48 49 55 198 11 246 l-20 23 26 24 c44 41 51 200 10 254 -40 54 -65 64 -167 70 l-96 5 2 -324z m158 221 c12 -7 14 -28 12 -96 -2 -48 -5 -91 -8 -96 -3 -4 -16 -8 -30 -8 -24 0 -24 1 -24 98 0 114 7 129 50 102z m0 -305 c8 -10 11 -37 8 -80 -4 -72 -18 -96 -43 -75 -11 9 -15 32 -15 85 0 39 3 75 7 78 11 11 30 8 43 -8z"></path><path id="pNIhTPAk2" d="M12132 16513 c-66 -32 -67 -36 -67 -348 l0 -280 44 -3 c24 -2 47 0 52 5 5 5 9 127 9 271 1 261 1 263 23 271 46 17 47 14 49 -273 l3 -271 50 0 50 0 3 270 c2 246 1 273 -16 305 -34 64 -128 89 -200 53z"></path><path id="p17itJR5Eh" d="M12465 16518 c-3 -7 -4 -153 -3 -323 l3 -310 45 0 45 0 0 320 0 320 -43 3 c-28 2 -44 -1 -47 -10z"></path><path id="p1ClFNOqzr" d="M12717 16524 c-4 -4 -7 -128 -7 -276 l0 -268 -41 0 -40 0 3 -47 3 -48 123 -3 122 -3 0 50 c0 49 -1 50 -32 53 l-33 3 -5 270 -5 270 -40 3 c-23 2 -44 0 -48 -4z"></path><path id="p2P7YRRsK" d="M12957 16523 c-4 -3 -7 -150 -7 -325 l0 -318 110 0 c61 0 110 3 111 8 1 4 2 23 3 42 l1 35 -57 3 -58 3 0 89 0 90 55 0 55 0 0 40 c0 44 -17 54 -76 48 l-29 -3 -3 98 -3 97 61 0 c66 0 69 5 61 88 -1 9 -30 12 -109 12 -60 0 -112 -3 -115 -7z"></path><path id="ptbWWrU8v" d="M13259 16233 c-1 -164 -2 -309 -3 -323 -1 -23 2 -25 48 -25 l49 0 34 100 c18 55 39 122 46 149 23 91 32 63 32 -96 l0 -153 45 0 45 0 0 320 0 320 -39 0 -38 0 -30 -85 c-16 -47 -34 -105 -39 -130 -12 -52 -29 -90 -41 -90 -4 0 -8 70 -8 155 l0 155 -50 0 -50 0 -1 -297z"></path><path id="pAlY7iRkS" d="M13672 16208 l3 -323 50 0 50 0 5 270 5 270 58 3 57 3 0 49 0 50 -115 0 -115 0 2 -322z"></path><path id="pZavvJggo" d="M13962 16208 l3 -323 110 0 110 0 3 43 3 42 -60 0 -61 0 0 90 0 90 48 0 c55 0 72 12 72 51 0 22 -6 28 -31 33 -17 3 -45 6 -61 6 l-29 0 3 93 3 92 58 3 57 3 0 49 0 50 -115 0 -115 0 2 -322z"></path><path id="ptIn8z6HF" d="M14335 16518 c-2 -7 -10 -56 -19 -108 -50 -314 -77 -516 -67 -525 9 -9 90 -5 96 5 3 6 11 52 16 103 5 50 18 137 28 192 21 117 22 115 45 -127 8 -86 17 -162 21 -167 3 -6 28 -11 56 -11 l49 0 -5 43 c-3 23 -10 69 -16 102 -8 56 -69 493 -69 501 0 2 -29 4 -65 4 -44 0 -67 -4 -70 -12z"></path><path id="pDvvlmHIL" d="M14632 16208 l3 -323 104 -3 c115 -3 122 0 112 51 -6 30 -9 32 -59 35 l-52 3 0 90 0 89 55 0 55 0 0 39 c0 44 -10 51 -71 51 l-40 0 3 93 3 92 58 3 c35 2 57 8 58 15 0 7 2 23 3 37 6 48 1 50 -120 50 l-114 0 2 -322z"></path><path id="pOYUf7n76" d="M14938 16473 c-2 -32 -2 -179 0 -326 l3 -268 47 3 c47 3 47 3 58 49 6 25 18 58 27 75 8 16 20 49 26 74 17 63 32 100 42 100 5 0 9 -68 9 -151 l0 -150 43 3 42 3 0 320 0 320 -36 3 -36 3 -36 -103 c-21 -57 -40 -119 -43 -138 -7 -41 -24 -80 -36 -80 -4 0 -8 72 -8 160 l0 160 -50 0 -49 0 -3 -57z"></path><path id="pGWROqlol" d="M10765 15474 c-179 -28 -285 -139 -337 -355 -23 -93 -23 -99 -23 -789 0 -636 2 -702 18 -772 22 -95 64 -181 118 -241 145 -166 528 -167 671 -2 33 39 71 118 89 189 34 132 41 305 36 918 -5 617 -9 674 -56 798 -46 121 -127 206 -225 236 -51 15 -233 27 -291 18z m185 -284 c78 -54 82 -99 77 -905 -3 -696 -4 -699 -45 -772 -16 -28 -62 -53 -99 -53 -15 0 -47 9 -71 20 -36 16 -47 29 -70 77 l-27 58 0 725 0 725 24 53 c25 55 59 87 101 94 38 7 82 -2 110 -22z"></path><path id="plgTXGBlI" d="M5122 14979 l3 -484 122 -3 c133 -3 159 5 203 61 48 61 50 76 50 430 l0 333 -33 54 c-41 69 -70 80 -230 87 l-117 6 2 -484z m206 361 c18 -11 37 -32 42 -46 13 -33 13 -604 1 -637 -11 -28 -93 -72 -116 -63 -13 5 -15 59 -15 386 l0 380 28 0 c15 0 42 -9 60 -20z"></path><path id="pkowHPaAw" d="M5728 15007 c-2 -249 -1 -467 2 -483 l5 -29 140 0 140 0 3 41 c4 53 -9 62 -93 66 l-70 3 -3 152 -3 152 78 3 78 3 3 34 c2 18 -1 38 -6 43 -5 5 -40 12 -78 16 l-69 7 -3 168 -2 167 90 0 91 0 -3 53 -3 52 -147 3 -148 3 -2 -454z"></path><path id="pQz8J5uUj" d="M6237 15454 c-9 -9 -10 -926 -1 -948 5 -13 26 -16 131 -16 109 0 130 3 158 20 66 41 96 159 77 299 -10 65 -15 78 -41 98 l-30 24 30 42 c35 51 44 114 44 332 l0 150 -53 3 c-36 2 -53 -1 -56 -10 -3 -7 -7 -102 -9 -211 -3 -130 -9 -203 -17 -212 -6 -8 -31 -17 -56 -21 -24 -3 -47 -7 -51 -8 -5 0 -10 103 -13 229 l-5 230 -50 3 c-28 2 -54 0 -58 -4z m208 -570 c34 -22 50 -99 39 -195 l-9 -74 -43 -15 c-72 -25 -77 -16 -80 141 -1 73 0 139 2 146 7 18 62 16 91 -3z"></path><path id="pUYxMJWj8" d="M7065 15448 c-3 -7 -4 -510 -3 -1118 l3 -1105 295 0 295 1 73 29 c168 68 217 184 217 515 -1 251 -21 333 -108 427 l-41 45 42 35 c52 43 84 97 111 187 31 102 36 152 35 356 -2 211 -22 328 -76 437 -29 60 -101 143 -122 143 -6 0 -24 7 -41 16 -58 30 -191 44 -438 44 -181 0 -239 -3 -242 -12z m549 -279 c50 -54 61 -128 61 -399 0 -189 -3 -236 -19 -293 -24 -89 -43 -100 -188 -105 l-108 -4 0 422 0 422 111 -4 111 -3 32 -36z m-85 -1038 c27 -6 55 -20 73 -38 26 -27 30 -39 40 -134 5 -57 8 -160 6 -229 -4 -110 -8 -131 -31 -177 -38 -75 -55 -83 -164 -83 l-93 0 0 328 c0 181 3 332 7 335 9 10 109 8 162 -2z"></path><path id="p14hlfEk6Z" d="M8905 15448 c-3 -7 -4 -510 -3 -1118 l3 -1105 148 -3 147 -3 0 991 0 990 206 2 206 3 1 116 c0 63 -3 121 -7 127 -11 18 -695 17 -701 0z"></path><path id="p4Zf0ai3o" d="M12309 15458 c-8 -36 -12 -2225 -3 -2239 3 -6 42 -9 95 -8 138 3 136 2 158 73 11 33 65 194 121 356 56 162 115 336 132 385 16 50 62 180 100 290 39 110 77 219 85 243 19 53 34 46 21 -10 -7 -27 -11 -283 -12 -688 l-1 -645 132 0 c72 0 133 2 135 5 2 3 2 508 0 1123 l-2 1117 -114 0 -115 0 -175 -527 c-96 -291 -198 -593 -225 -673 -27 -80 -53 -160 -58 -179 -4 -19 -8 274 -8 670 l0 704 -132 3 c-73 2 -133 2 -134 0z"></path><path id="pWVw5MPK7" d="M14258 14688 c-4 -1213 -4 -1452 0 -1465 3 -9 43 -12 148 -12 79 1 146 5 149 9 2 4 5 223 5 488 1 265 6 484 10 487 5 3 12 -9 16 -27 3 -18 49 -152 101 -298 52 -146 116 -328 143 -405 26 -77 60 -166 74 -198 l25 -58 143 6 c79 4 146 10 150 14 4 3 -4 38 -18 76 -14 39 -35 99 -48 135 -36 99 -115 319 -136 375 -10 28 -55 152 -100 276 -93 258 -92 217 -15 414 26 66 53 138 61 160 7 22 22 65 34 95 12 30 41 107 64 170 24 63 75 199 114 302 40 103 72 197 72 208 0 19 -6 20 -154 20 l-154 0 -10 -27 c-6 -16 -26 -68 -45 -118 -19 -49 -45 -119 -57 -155 -13 -36 -52 -141 -87 -235 -36 -93 -88 -235 -115 -315 -27 -80 -54 -149 -59 -155 -5 -5 -9 196 -9 498 l0 507 -150 0 -150 0 -2 -772z"></path><path id="pRzTOu3Xz" d="M5246 14175 c-17 -9 -25 -31 -43 -130 -12 -66 -27 -156 -33 -200 -6 -44 -19 -127 -29 -185 -59 -334 -72 -428 -59 -436 19 -12 87 -13 96 -1 10 13 47 231 83 482 12 83 27 161 33 173 14 26 19 -2 51 -278 21 -185 46 -374 50 -379 2 -2 27 -5 55 -8 37 -3 52 0 56 10 3 8 -11 117 -31 243 -19 126 -44 290 -56 364 -29 196 -49 320 -55 335 -7 17 -90 24 -118 10z"></path><path id="paabr3Sbn" d="M5926 14175 c-8 -8 -17 -48 -21 -95 l-7 -80 -84 0 c-46 0 -84 3 -84 8 0 14 -21 137 -26 155 -4 13 -17 17 -61 17 l-55 0 5 -29 c3 -16 13 -84 22 -152 9 -68 18 -131 20 -139 2 -8 16 -94 30 -190 55 -385 65 -444 77 -452 14 -9 112 -8 127 1 12 8 58 258 117 635 3 21 7 47 9 57 13 69 36 243 33 257 -4 22 -82 27 -102 7z m-56 -289 c0 -6 -9 -81 -20 -166 -11 -85 -20 -174 -20 -198 0 -31 -4 -42 -12 -40 -12 4 -40 167 -62 355 -6 48 -4 52 16 55 54 7 98 5 98 -6z"></path><path id="p17R33y25J" d="M6213 14183 c-10 -4 -13 -109 -13 -478 0 -366 3 -475 13 -483 11 -9 73 -10 81 -1 2 2 31 85 64 184 69 206 115 334 129 359 6 11 8 -81 5 -262 l-5 -280 42 -4 c23 -2 47 0 54 4 14 8 24 935 10 949 -15 15 -70 19 -80 6 -5 -6 -49 -132 -98 -279 -48 -147 -91 -265 -96 -262 -5 3 -9 124 -9 269 0 160 -4 266 -10 270 -13 8 -73 14 -87 8z"></path><path id="pA5Xzl8Wp" d="M9835 11978 c-341 -13 -606 -44 -908 -104 -547 -109 -1105 -322 -1582 -604 -49 -29 -99 -58 -110 -64 -159 -89 -547 -385 -756 -576 -118 -109 -341 -339 -415 -430 -16 -19 -34 -39 -40 -45 -10 -9 -101 -122 -122 -150 -4 -6 -34 -46 -68 -90 -170 -223 -337 -494 -477 -774 -94 -187 -126 -258 -157 -341 -21 -56 -77 -195 -95 -236 -11 -26 -61 -190 -130 -429 -19 -66 -72 -304 -84 -380 -20 -118 -31 -191 -36 -240 -3 -27 -8 -59 -11 -70 -2 -11 -11 -105 -19 -210 -24 -304 -17 -750 15 -980 5 -38 11 -105 12 -149 3 -69 1 -80 -17 -90 -54 -31 -162 -106 -177 -122 -24 -28 -58 -98 -64 -130 -2 -16 -7 -35 -10 -43 -6 -18 22 -116 44 -150 9 -14 30 -43 46 -64 l30 -37 -23 -38 c-42 -69 -110 -220 -130 -289 -44 -150 -54 -224 -54 -388 0 -228 41 -414 133 -596 23 -45 306 -485 368 -572 31 -43 33 -49 19 -65 -26 -30 -46 -78 -53 -129 -5 -44 -2 -59 24 -109 37 -74 290 -465 311 -482 77 -62 108 -76 168 -80 69 -5 127 17 226 82 30 20 56 36 59 36 5 0 292 -433 443 -670 83 -129 131 -182 200 -218 45 -24 61 -27 155 -27 95 0 110 3 162 28 73 36 133 96 167 167 22 47 26 69 26 146 0 82 -3 97 -31 150 -28 53 -259 413 -450 699 -51 77 -70 113 -63 121 5 7 54 41 107 77 303 201 452 297 461 297 6 0 15 -9 21 -20 10 -19 331 -509 389 -595 15 -22 45 -69 66 -105 51 -85 126 -155 193 -180 68 -26 211 -28 268 -4 41 17 106 64 137 99 81 92 104 273 48 382 -17 34 -67 113 -236 373 -12 19 -80 122 -149 228 -70 106 -129 198 -131 205 -4 12 56 62 111 90 79 41 130 140 121 236 -6 66 -16 86 -171 326 -195 301 -203 307 -417 315 -3 0 -30 37 -59 83 -45 69 -181 277 -267 408 -13 20 -31 44 -41 55 -9 11 -35 42 -56 69 -56 72 -204 209 -246 228 -8 4 -35 20 -60 36 -107 69 -280 143 -378 161 -31 5 -68 13 -82 17 -14 4 -119 8 -234 9 l-210 1 -41 65 c-44 67 -98 115 -152 137 -33 14 -152 11 -185 -3 -23 -10 -25 0 -43 214 -35 413 -12 838 70 1286 31 173 42 222 89 397 34 124 136 419 195 560 190 457 480 930 785 1280 26 30 49 47 64 47 22 0 187 -47 245 -69 16 -6 74 -22 130 -36 179 -44 175 -42 186 -78 5 -17 26 -106 46 -197 19 -91 49 -220 65 -287 17 -67 30 -125 30 -128 0 -2 -132 -6 -292 -7 l-293 -3 -3 -117 -3 -118 322 -2 322 -3 13 -50 c27 -102 40 -94 -173 -97 l-188 -3 -3 -118 -3 -117 993 2 993 3 3 117 3 118 -188 2 c-160 3 -188 5 -186 18 5 53 23 114 34 121 8 5 151 9 319 8 l305 0 3 106 c2 70 -1 112 -9 121 -9 11 -64 14 -291 14 l-280 0 5 23 c2 12 17 83 32 157 15 74 31 139 36 144 4 5 109 -1 242 -13 282 -26 505 -40 809 -49 128 -4 231 -11 237 -17 8 -9 -15 -924 -24 -933 -2 -2 -45 -12 -96 -23 -266 -55 -476 -190 -639 -409 -76 -103 -111 -172 -155 -303 -43 -128 -55 -204 -55 -342 0 -374 234 -1403 445 -1955 113 -294 212 -482 311 -584 55 -56 145 -96 218 -96 48 0 73 7 134 37 154 76 284 248 455 603 228 473 469 1223 553 1720 21 129 29 341 15 443 -31 229 -155 468 -323 620 -43 39 -87 76 -96 81 -9 5 -26 17 -37 26 -53 47 -199 111 -360 157 l-60 18 3 190 c3 229 19 693 25 718 7 35 26 41 135 44 599 16 1165 69 1677 159 77 13 145 24 152 24 10 0 13 -36 13 -155 l0 -155 -440 0 c-439 0 -439 0 -460 -22 -11 -12 -20 -29 -20 -37 1 -36 43 -326 65 -451 34 -185 47 -269 60 -365 7 -55 17 -118 23 -140 6 -22 13 -71 17 -110 3 -38 12 -92 20 -120 7 -27 16 -81 20 -120 3 -38 12 -95 20 -125 7 -30 16 -76 20 -102 4 -35 12 -51 28 -60 17 -10 203 -12 807 -9 432 1 789 6 793 11 11 10 26 75 42 190 8 52 23 151 34 220 11 69 25 157 31 195 6 39 18 106 26 150 9 44 20 116 25 160 4 44 15 105 23 135 9 30 16 73 16 95 0 22 8 69 16 105 8 36 19 105 24 153 5 48 15 105 21 126 9 31 8 43 -5 69 -9 17 -22 34 -28 39 -7 4 -206 10 -443 13 l-430 5 -3 183 c-2 141 0 183 10 186 7 2 155 39 328 81 310 77 382 97 709 197 l165 50 43 -48 c64 -71 253 -318 327 -426 219 -322 419 -708 554 -1073 264 -712 356 -1508 261 -2265 -35 -281 -101 -586 -190 -875 -37 -121 -39 -131 -22 -142 9 -7 22 -13 29 -13 7 0 63 -16 125 -35 61 -20 113 -34 114 -33 1 2 19 53 39 113 34 106 50 161 101 365 30 120 80 387 95 505 6 50 15 122 20 160 19 135 30 592 20 805 -27 563 -141 1098 -347 1629 -24 63 -54 135 -65 160 -224 491 -407 795 -717 1186 -179 226 -416 473 -645 670 -68 59 -81 69 -189 152 -30 23 -60 47 -68 55 -51 49 -345 246 -516 346 -166 98 -538 278 -708 344 -209 82 -215 83 -495 169 -138 42 -382 95 -541 118 -41 6 -117 17 -170 25 -94 15 -275 30 -529 44 -69 4 -197 4 -285 0z m417 -308 c254 -17 630 -68 649 -87 9 -9 -47 -254 -98 -423 -120 -404 -206 -643 -350 -975 -45 -104 -180 -369 -201 -395 l-20 -25 -269 0 c-147 0 -280 3 -295 8 -23 6 -41 36 -128 211 -55 111 -100 206 -100 210 0 4 -16 44 -36 89 -42 96 -156 395 -177 464 -9 26 -37 120 -65 208 -96 310 -171 610 -156 625 13 12 412 69 594 85 195 16 453 18 652 5z m1018 -168 c246 -80 460 -156 570 -202 170 -73 346 -158 360 -175 9 -10 -8 -52 -73 -177 -92 -179 -193 -358 -241 -428 -17 -24 -44 -68 -61 -96 -33 -56 -113 -170 -187 -267 -27 -34 -51 -67 -55 -72 -29 -39 -134 -157 -171 -192 -38 -36 -53 -43 -110 -52 -109 -17 -680 -63 -692 -56 -4 2 9 37 30 77 97 193 308 724 370 933 10 33 38 128 63 210 25 83 61 215 81 295 56 220 56 222 69 217 7 -2 28 -9 47 -15z m-2552 -59 c46 -241 182 -699 302 -1018 91 -240 148 -372 278 -638 2 -5 -27 -6 -64 -3 -38 3 -161 13 -274 22 -303 23 -333 29 -375 71 -146 146 -468 617 -632 923 -124 232 -173 329 -173 343 0 25 247 141 500 234 112 42 388 130 410 132 11 1 19 -17 28 -66z m-1120 -618 c49 -99 128 -246 176 -328 97 -167 313 -493 365 -550 18 -21 32 -39 29 -42 -5 -5 -153 17 -303 45 -60 12 -137 26 -170 31 -180 30 -679 150 -935 224 -63 19 -132 37 -153 41 -21 3 -41 13 -44 20 -9 24 224 237 482 439 45 35 41 32 231 159 82 54 165 109 184 122 19 13 38 23 42 22 4 -2 47 -84 96 -183z m4989 82 c139 -94 287 -199 338 -242 28 -22 77 -62 110 -87 68 -52 71 -54 191 -164 49 -45 100 -91 113 -101 l24 -20 -44 -16 c-204 -76 -914 -254 -1284 -322 -49 -9 -110 -21 -135 -25 -25 -5 -46 -7 -48 -5 -2 1 19 31 46 66 171 225 382 572 533 882 29 58 49 87 60 87 10 0 53 -24 96 -53z m-5282 -1156 c279 -63 875 -171 942 -171 9 0 0 -55 -33 -198 -19 -86 -53 -244 -75 -351 -22 -107 -42 -198 -45 -202 -3 -5 -169 -9 -369 -9 l-363 0 -27 118 c-37 163 -49 218 -99 452 -86 399 -85 390 -72 390 6 0 70 -13 141 -29z m4468 -713 c19 -136 29 -269 23 -275 -11 -11 -296 -17 -306 -6 -5 4 -11 26 -15 48 -27 178 -36 249 -31 261 4 11 36 14 165 14 l159 0 5 -42z m623 -114 c-3 -86 -9 -160 -12 -165 -3 -5 -79 -9 -169 -9 -155 0 -165 1 -175 20 -11 20 -13 286 -3 303 2 4 86 7 185 7 l181 0 -7 -156z m607 63 c-1 -48 -6 -102 -12 -120 -5 -17 -15 -51 -21 -74 l-11 -43 -159 0 -159 0 -7 37 c-4 20 -4 84 0 142 9 154 6 152 210 149 l161 -3 -2 -88z m-1190 -522 c4 -33 11 -87 16 -120 5 -33 7 -63 4 -67 -2 -5 -66 -8 -142 -8 l-138 0 -11 38 c-9 28 -32 171 -32 198 0 15 60 22 170 20 l125 -1 8 -60z m555 -62 l-3 -128 -152 -3 c-176 -3 -158 -18 -168 140 -8 127 -27 115 183 117 l143 1 -3 -127z m566 119 c8 -14 -16 -237 -27 -244 -5 -3 -77 -7 -159 -7 -169 -2 -152 -14 -149 104 3 105 10 143 29 148 30 8 301 7 306 -1z m-3179 -414 c-4 -57 -12 -113 -18 -125 -7 -12 -66 -67 -132 -123 -66 -56 -134 -114 -150 -129 -30 -25 -216 -182 -224 -188 -12 -9 61 -102 161 -206 l37 -38 32 28 c18 15 40 35 49 43 87 81 211 180 224 180 2 0 2 -39 1 -87 -11 -279 -29 -964 -30 -1118 l0 -180 148 -3 147 -3 0 88 c0 153 13 463 19 463 4 0 37 -49 74 -109 37 -60 74 -115 82 -121 11 -9 40 4 139 65 117 72 125 79 114 99 -6 11 -44 70 -83 131 -96 147 -231 360 -279 440 l-38 65 11 312 c20 559 22 599 36 604 39 15 265 -110 352 -194 142 -138 222 -314 231 -504 10 -236 -79 -635 -273 -1223 -174 -527 -373 -940 -531 -1104 -29 -29 -57 -50 -63 -46 -35 21 -155 250 -224 426 -43 109 -157 459 -191 584 -18 69 -92 351 -106 410 -86 344 -157 807 -146 950 11 150 70 307 155 415 56 72 147 157 199 186 26 15 54 33 62 40 17 13 187 74 209 74 11 0 12 -19 6 -102z m2089 -80 c3 -29 7 -84 8 -123 l3 -70 -127 -3 -127 -3 -6 43 c-11 77 -21 199 -16 203 2 3 62 5 132 5 l128 0 5 -52z m517 -68 c-1 -63 -5 -118 -7 -122 -3 -5 -65 -8 -138 -8 -157 0 -146 -12 -146 148 l0 103 147 -3 147 -3 -3 -115z m521 45 c-4 -75 -18 -142 -34 -162 -12 -15 -254 -18 -277 -4 -11 7 -13 27 -8 99 4 49 11 102 17 116 l10 27 147 -3 148 -3 -3 -70z m-7569 -2177 c31 -51 67 -106 80 -122 l23 -29 139 28 c124 25 152 27 269 22 76 -4 152 -13 181 -22 28 -9 57 -18 65 -20 98 -22 295 -142 395 -242 75 -75 111 -126 429 -614 92 -141 176 -265 186 -274 19 -18 21 -17 58 12 20 16 51 37 68 46 l31 16 102 -150 c55 -83 101 -154 101 -158 0 -4 -24 -23 -52 -41 -175 -112 -278 -182 -278 -191 0 -6 55 -95 123 -197 67 -103 154 -235 192 -294 39 -60 124 -191 190 -291 66 -101 132 -205 145 -230 l25 -47 -21 -21 c-35 -34 -59 -17 -127 89 -34 53 -134 206 -222 340 -88 133 -205 313 -260 398 -138 216 -124 200 -166 179 -40 -21 -225 -141 -711 -460 -92 -60 -208 -136 -257 -168 -50 -32 -91 -62 -91 -67 0 -5 35 -62 78 -127 43 -65 108 -163 144 -218 35 -55 100 -154 143 -220 186 -284 262 -402 284 -438 39 -64 10 -109 -49 -77 -10 6 -43 47 -73 93 -30 45 -94 143 -142 217 -388 595 -465 710 -476 710 -8 0 -131 -77 -292 -183 l-42 -27 -22 27 c-31 40 -183 274 -183 283 0 4 32 28 70 54 58 39 68 50 61 65 -5 9 -51 80 -102 157 -50 76 -115 175 -144 219 -29 44 -94 143 -144 220 -162 245 -230 417 -247 622 -17 209 70 485 206 653 20 25 45 59 54 76 l18 30 -76 113 c-42 62 -76 118 -76 125 0 7 44 41 98 76 53 35 126 83 161 107 36 23 68 43 71 43 3 0 31 -42 63 -92z"></path><path id="pUz4V0aK" d="M14083 6401 c-24 -11 -52 -35 -63 -53 -21 -33 -21 -38 -15 -508 6 -371 10 -481 21 -502 18 -35 58 -65 105 -79 34 -11 44 -9 92 15 94 46 91 23 82 570 l-7 471 -25 33 c-51 68 -118 87 -190 53z"></path><path id="pznrgEgxl" d="M13303 5828 c-46 -12 -76 -54 -70 -98 2 -19 46 -127 97 -240 131 -291 130 -289 153 -305 46 -32 141 -6 154 43 3 13 3 40 -1 62 -5 33 -119 296 -204 468 -34 70 -66 88 -129 70z"></path><path id="pt8st3IRO" d="M15797 5707 c-27 -13 -355 -342 -540 -541 -51 -55 -101 -109 -111 -120 -35 -35 -46 -84 -31 -134 16 -53 39 -80 82 -98 77 -33 140 -6 243 102 41 43 159 164 261 268 310 317 314 322 306 394 -11 101 -122 169 -210 129z"></path><path id="pkMA8YAfH" d="M12395 5692 c-58 -20 -91 -61 -101 -127 -9 -61 7 -82 173 -247 76 -75 217 -215 315 -311 97 -95 193 -182 213 -192 43 -20 100 -15 148 13 57 34 84 130 53 191 -18 34 -644 649 -681 669 -42 21 -66 22 -120 4z"></path><path id="p68fcJlSO" d="M13975 5085 c-38 -7 -101 -20 -140 -29 -213 -50 -421 -174 -585 -348 -159 -169 -277 -400 -317 -622 -22 -126 -22 -345 0 -465 70 -380 312 -703 657 -879 193 -98 292 -123 520 -129 248 -7 398 22 589 115 147 71 341 221 418 324 153 204 214 330 260 533 27 123 25 426 -5 555 -56 247 -184 462 -379 639 -157 142 -267 202 -515 280 -121 39 -362 51 -503 26z m319 -299 c118 -20 183 -41 293 -97 253 -131 421 -346 493 -635 20 -78 22 -106 17 -234 -4 -121 -9 -159 -32 -230 -94 -294 -324 -535 -600 -628 -125 -42 -159 -47 -300 -47 -116 0 -155 4 -230 24 -435 116 -721 480 -718 917 2 415 278 785 670 899 157 46 262 54 407 31z"></path><path id="p11Wrw88OD" d="M16010 4773 c-64 -23 -237 -98 -375 -163 -139 -64 -155 -79 -155 -141 0 -51 12 -69 60 -94 26 -13 34 -13 92 9 68 26 364 160 438 199 30 16 51 36 63 61 18 35 18 38 2 64 -38 60 -80 81 -125 65z"></path><path id="pAlEa2Fu7" d="M12187 4679 c-15 -11 -32 -37 -38 -59 -10 -34 -9 -42 11 -69 27 -38 70 -61 225 -118 214 -80 316 -113 344 -113 34 0 67 23 87 62 14 28 14 34 -1 73 -18 49 -24 52 -275 144 -74 27 -163 61 -197 75 -76 31 -122 33 -156 5z"></path><path id="p1gI19A0e" d="M15850 4001 c-202 -7 -212 -9 -257 -68 -52 -68 -30 -169 46 -212 41 -23 106 -24 687 -12 300 6 301 6 337 31 77 53 78 169 2 240 l-27 25 -301 1 c-166 0 -385 -2 -487 -5z"></path><path id="pVDz3zV6L" d="M11744 3991 c-101 -8 -144 -52 -144 -146 0 -58 20 -98 67 -129 l37 -26 425 6 c481 5 508 7 551 29 87 45 94 180 12 253 l-25 22 -426 -2 c-234 -1 -458 -4 -497 -7z"></path><path id="pTzENDDOl" d="M15553 3376 c-31 -14 -63 -60 -63 -91 0 -56 65 -100 240 -161 52 -18 135 -49 183 -69 49 -20 112 -39 142 -42 50 -5 56 -4 84 25 34 33 40 72 19 117 -13 29 -83 65 -218 113 -47 17 -132 49 -190 71 -128 50 -156 55 -197 37z"></path><path id="pl2bYR3hR" d="M12645 3305 c-194 -83 -420 -187 -436 -201 -22 -20 -39 -82 -30 -108 10 -24 35 -48 69 -65 25 -13 61 -2 212 66 36 17 118 54 183 83 66 29 133 63 150 74 66 45 62 131 -8 171 l-40 23 -100 -43z"></path><path id="p2cFwijkC" d="M15240 2900 c-81 -15 -132 -72 -133 -149 -1 -62 14 -82 181 -244 69 -67 206 -201 304 -297 98 -96 193 -182 211 -192 51 -27 98 -23 153 15 40 26 51 40 62 79 12 42 11 52 -5 85 -10 22 -104 124 -219 238 -486 484 -480 479 -554 465z"></path><path id="p1CuzezHeP" d="M12985 2889 c-11 -6 -58 -50 -105 -99 -47 -48 -188 -193 -314 -320 -251 -256 -273 -287 -257 -360 16 -72 77 -120 151 -120 59 0 84 17 190 126 52 54 177 181 277 283 249 256 262 270 274 315 19 69 -12 141 -73 172 -32 16 -114 18 -143 3z"></path><path id="pM4v342j3" d="M14701 2504 c-34 -43 -27 -95 25 -209 25 -55 71 -158 102 -229 58 -134 104 -196 143 -196 69 0 119 64 103 133 -9 44 -188 441 -219 489 -24 36 -28 38 -79 38 -47 0 -57 -4 -75 -26z"></path><path id="pHNB7aNWA" d="M13554 2509 c-30 -9 -63 -54 -79 -109 -4 -14 -22 -63 -40 -110 -18 -47 -54 -139 -79 -205 -25 -67 -46 -133 -46 -147 0 -36 59 -98 93 -98 63 0 93 27 126 117 10 26 50 133 90 236 72 191 79 218 61 259 -23 55 -66 75 -126 57z"></path><path id="p1Argy1NFz" d="M14104 2439 c-38 -11 -82 -53 -90 -86 -4 -14 -4 -235 -2 -492 6 -521 3 -502 76 -550 73 -48 170 -20 209 60 21 44 21 45 15 510 l-7 466 -28 36 c-47 62 -98 78 -173 56z"></path></g></g></svg>